# xmcd
#
# Track frame offsets:
#	182
#	12687
#	22627
#	34250
#	48252
#	60727
#	71390
#	83717
#	96552
#	107422
#	120280
#
# Disc length: 1793 seconds
#
# Revision: 2
# Processed by: cddbd v1.5PL3 Copyright (c) Steve Scherf et al.
# Submitted via: EasyCDDAExtractor 5.0.6
#
DISCID=8106ff0b
DTITLE=Marvelettes - Motown Legends - The Marvelettes
DYEAR=1900
DGENRE=Blues
TTITLE0=Playboy
TTITLE1=Beechwood 4-5789
TTITLE2=Whisper
TTITLE3=Message To Micheal
TTITLE4=You're The One
TTITLE5=Forever
TTITLE6=The Truth's Outside My Door
TTITLE7=Tonight Was Made For Love
TTITLE8=The One Who Really Loves
TTITLE9=Everybody Knows (But You)
TTITLE10=When I Need You
EXTD=
EXTT0=
EXTT1=
EXTT2=
EXTT3=
EXTT4=
EXTT5=
EXTT6=
EXTT7=
EXTT8=
EXTT9=
EXTT10=
PLAYORDER=
